<?xml version="1.0" encoding="UTF-8" standalone="no"?>
<svg
   xmlns:dc="http://purl.org/dc/elements/1.1/"
   xmlns:cc="http://creativecommons.org/ns#"
   xmlns:rdf="http://www.w3.org/1999/02/22-rdf-syntax-ns#"
   xmlns:svg="http://www.w3.org/2000/svg"
   xmlns="http://www.w3.org/2000/svg"
   xmlns:sodipodi="http://sodipodi.sourceforge.net/DTD/sodipodi-0.dtd"
   xmlns:inkscape="http://www.inkscape.org/namespaces/inkscape"
   viewBox="0 0 387.78 329.89"
   version="1.1"
   id="svg270"
   sodipodi:docname="contact.svg"
   inkscape:version="0.92.2 (5c3e80d, 2017-08-06)">
  <metadata
     id="metadata274">
    <rdf:RDF>
      <cc:Work
         rdf:about="">
        <dc:format>image/svg+xml</dc:format>
        <dc:type
           rdf:resource="http://purl.org/dc/dcmitype/StillImage" />
      </cc:Work>
    </rdf:RDF>
  </metadata>
  <sodipodi:namedview
     pagecolor="#ffffff"
     bordercolor="#666666"
     borderopacity="1"
     objecttolerance="10"
     gridtolerance="10"
     guidetolerance="10"
     inkscape:pageopacity="0"
     inkscape:pageshadow="2"
     inkscape:window-width="1603"
     inkscape:window-height="752"
     id="namedview272"
     showgrid="false"
     inkscape:zoom="1.4307799"
     inkscape:cx="139.78743"
     inkscape:cy="147.99087"
     inkscape:window-x="0"
     inkscape:window-y="0"
     inkscape:window-maximized="0"
     inkscape:current-layer="svg270" />
  <defs
     id="defs4">
    <style
       id="style2">.a{fill:#f0f0f0;}.b{fill:#f5f5f5;}.c{fill:#e6e6e6;}.d{fill:#e0e0e0;}.e{fill:#ebebeb;}.f{fill:#fafafa;}.g,.l,.r{fill:#6f00ff;}.h,.j,.u{fill:#fff;}.h{opacity:0.3;}.i{fill:#263238;}.k,.m{fill:#b48dff;}.l{opacity:0.1;}.m{opacity:0.4;}.n{fill:#407bff;}.o{fill:#35009b;}.p{fill:#ff5652;}.q{fill:#ff8b7b;}.r,.s,.t{opacity:0.2;}.u{opacity:0.7;}</style>
  </defs>
  <rect
     class="a"
     x="381.06"
     y="248.05"
     width="45.65"
     height="125.47"
     transform="translate(751.66 523.91) rotate(180)"
     id="rect6" />
  <rect
     class="a"
     x="181.74"
     y="373.53"
     width="236.21"
     height="8.87"
     transform="translate(543.57 658.26) rotate(180)"
     id="rect8" />
  <rect
     class="b"
     x="116.86"
     y="150.39"
     width="208.09"
     height="125.47"
     id="rect10" />
  <rect
     class="a"
     x="116.86"
     y="158.88"
     width="208.89"
     height="45.93"
     id="rect12" />
  <rect
     class="a"
     x="116.86"
     y="213.18"
     width="208.89"
     height="45.93"
     id="rect14" />
  <rect
     class="c"
     x="381.06"
     y="256.55"
     width="7.9"
     height="45.93"
     transform="translate(713.91 461.35) rotate(180)"
     id="rect16" />
  <rect
     class="c"
     x="381.06"
     y="310.85"
     width="7.9"
     height="45.93"
     transform="translate(713.91 569.95) rotate(180)"
     id="rect18" />
  <rect
     class="a"
     x="166.89"
     y="240.33"
     width="214.17"
     height="7.72"
     transform="translate(491.84 390.72) rotate(180)"
     id="rect20" />
  <rect
     class="c"
     x="324.95"
     y="142.67"
     width="52.03"
     height="7.72"
     id="rect22" />
  <rect
     class="a"
     x="117.21"
     y="153.22"
     width="7.04"
     height="229.18"
     transform="translate(185.36 437.95) rotate(180)"
     id="rect24" />
  <path
     class="a"
     d="M115.75,380.8l-.19-1a5.58,5.58,0,0,0,3.33-2.91c1.83-3.24,2.94-10.15-2.15-24.63-7.84-22.32-3.16-40.32,6.17-76.2,1.62-6.25,3.46-13.33,5.37-21,7.17-28.67.54-46.45-4.79-60.74-4.13-11.09-7.4-19.85-3.22-30l.93.38c-4,9.78-.83,18.38,3.23,29.27,5.38,14.41,12.07,32.36,4.82,61.32-1.91,7.66-3.75,14.74-5.37,21C114.6,312,109.94,329.92,117.69,352c5.23,14.89,4,22.09,2,25.5A6.48,6.48,0,0,1,115.75,380.8Z"
     transform="translate(-56.11 -97.67)"
     id="path26" />
  <polygon
     class="a"
     points="51.88 284.73 77.37 284.73 70.28 280.56 58.97 280.56 51.88 284.73"
     id="polygon28" />
  <polygon
     class="b"
     points="14.2 84.74 115.04 84.74 103.95 0 25.3 0 14.2 84.74"
     id="polygon30" />
  <polygon
     class="a"
     points="163.77 98.71 217.61 98.71 210.52 142.67 170.85 142.67 163.77 98.71"
     id="polygon32" />
  <path
     class="d"
     d="M241.51,210.68c14.68-5.31,25.92-13.29,13.34-29.44s-32.07-16.07-45.21-8.92c-16.74,9.1-13.38,35.45-13.38,35.45S226.83,216,241.51,210.68Z"
     transform="translate(-56.11 -97.67)"
     id="path34" />
  <path
     class="c"
     d="M255.78,196c-11.23-7.65-19.19-16.5-6.16-25.84s29.1-4.55,38.76,4.12c12.31,11.06,5.2,30.47,5.2,30.47S267,203.61,255.78,196Z"
     transform="translate(-56.11 -97.67)"
     id="path36" />
  <path
     class="a"
     d="M236,176.59c13.14-.79,24.16-4.22,17.94-18.45s-22-18.22-34.31-15.78c-15.73,3.11-19.44,22.79-19.44,22.79S222.87,177.39,236,176.59Z"
     transform="translate(-56.11 -97.67)"
     id="path38" />
  <path
     class="e"
     d="M252.5,168.2c-10.93-3.52-19.5-8.79-11.17-19.48s22.5-10.63,32.4-5.91c12.62,6,11.5,23.46,11.5,23.46S263.43,171.71,252.5,168.2Z"
     transform="translate(-56.11 -97.67)"
     id="path40" />
  <path
     class="b"
     d="M232,150c10.91,3.6,20.94,4.38,20.49-9.16S240.58,119,229.8,116.94c-13.75-2.56-23.11,12.19-23.11,12.19S221.11,146.37,232,150Z"
     transform="translate(-56.11 -97.67)"
     id="path42" />
  <path
     class="f"
     d="M259.69,144.15c-7.81.54-14.56-.64-12-9.51s11.56-12.4,19-11.91c9.5.63,13.19,12,13.19,12S267.49,143.62,259.69,144.15Z"
     transform="translate(-56.11 -97.67)"
     id="path44" />
  <ellipse
     class="b"
     cx="193.89"
     cy="318.57"
     rx="193.89"
     ry="11.32"
     id="ellipse46" />
  <rect
     class="g"
     x="23.4"
     y="153.42"
     width="339.75"
     height="12.19"
     id="rect48"
     style="fill:#0000ff" />
  <rect
     class="h"
     x="23.4"
     y="153.42"
     width="90.93"
     height="12.19"
     id="rect50" />
  <polygon
     class="g"
     points="115.78 165.61 107.87 165.61 112.01 318.39 115.78 318.39 119.55 318.39 123.69 165.61 115.78 165.61"
     id="polygon52"
     style="fill:#0000ff" />
  <polygon
     class="h"
     points="112.01 318.39 115.78 318.39 115.78 168.89 108 170.32 112.01 318.39"
     id="polygon54" />
  <polygon
     class="g"
     points="40.81 165.61 32.89 165.61 37.04 318.39 40.81 318.39 44.58 318.39 48.72 165.61 40.81 165.61"
     id="polygon56"
     style="fill:#0000ff" />
  <polygon
     class="h"
     points="37.04 318.39 40.81 318.39 40.81 168.89 33.02 170.32 37.04 318.39"
     id="polygon58" />
  <polygon
     class="g"
     points="345.74 165.61 337.83 165.61 341.97 318.39 345.74 318.39 349.51 318.39 353.66 165.61 345.74 165.61"
     id="polygon60"
     style="fill:#0000ff" />
  <polygon
     class="h"
     points="341.97 318.39 345.74 318.39 345.74 168.89 337.96 170.32 341.97 318.39"
     id="polygon62" />
  <polygon
     class="g"
     points="270.77 165.61 262.86 165.61 267 318.39 270.77 318.39 274.54 318.39 278.68 165.61 270.77 165.61"
     id="polygon64"
     style="fill:#0000ff" />
  <polygon
     class="h"
     points="267 318.39 270.77 318.39 270.77 168.89 262.98 170.32 267 318.39"
     id="polygon66" />
  <path
     class="i"
     d="M240.78,185.83H160a4.16,4.16,0,0,0-4.17,5.28l10.76,51.35a6.87,6.87,0,0,0,6.38,5.27h80.84a4.16,4.16,0,0,0,4.17-5.27l-10.77-51.35A6.87,6.87,0,0,0,240.78,185.83Z"
     transform="translate(-56.11 -97.67)"
     id="path68" />
  <path
     class="j"
     d="M173.67,244.8a4.79,4.79,0,0,1-4.32-3.6l-10.76-51.35a2.35,2.35,0,0,1,.37-2,2.17,2.17,0,0,1,1.73-.73h80.84a4.79,4.79,0,0,1,4.32,3.6l10.76,51.35a2.35,2.35,0,0,1-.37,2,2.14,2.14,0,0,1-1.73.73Z"
     transform="translate(-56.11 -97.67)"
     id="path70" />
  <path
     class="k"
     d="m 170.55,143.02 -10.2,-48.69 a 2,2 0 0 1 1.94,-2.39 h 13.12 a 2,2 0 0 1 1.94,1.58 l 10.2,48.65 a 2,2 0 0 1 -1.94,2.39 h -13.12 a 2,2 0 0 1 -1.94,-1.54 z"
     id="path72"
     style="fill:#80b3ff"
     inkscape:connector-curvature="0" />
  <polygon
     class="g"
     points="109.21 96.21 108.77 94.1 124.97 94.1 125.41 96.21 109.21 96.21"
     id="polygon74"
     style="fill:#0000ff" />
  <polygon
     class="e"
     points="116.69 101.44 116.25 99.33 144.64 99.33 145.09 101.44 116.69 101.44"
     id="polygon76" />
  <polygon
     class="e"
     points="118.18 106.67 117.74 104.56 149.57 104.56 150.01 106.67 118.18 106.67"
     id="polygon78" />
  <polygon
     class="e"
     points="119.68 111.91 119.24 109.8 144.86 109.8 145.31 111.91 119.68 111.91"
     id="polygon80" />
  <polygon
     class="g"
     points="114.13 120.4 113.69 118.29 123.94 118.29 124.38 120.4 114.13 120.4"
     id="polygon82"
     style="fill:#0000ff" />
  <polygon
     class="e"
     points="121.61 125.64 121.17 123.53 133.65 123.53 134.1 125.64 121.61 125.64"
     id="polygon84" />
  <polygon
     class="e"
     points="137.09 125.64 136.64 123.53 149.13 123.53 149.57 125.64 137.09 125.64"
     id="polygon86" />
  <polygon
     class="e"
     points="123.11 130.87 122.66 128.76 164.87 128.76 165.31 130.87 123.11 130.87"
     id="polygon88" />
  <polygon
     class="e"
     points="124.6 136.11 124.16 134 156.34 134 156.78 136.11 124.6 136.11"
     id="polygon90" />
  <path
     class="i"
     d="M278.52,247.42H172.16c-2.9,0-4.78,1.65-4.17,3.67H284.9C284.3,249.07,281.42,247.42,278.52,247.42Z"
     transform="translate(-56.11 -97.67)"
     id="path92" />
  <path
     class="l"
     d="M137.21,172.85,127,124.19a2,2,0,0,1,1.94-2.38h82.6a2,2,0,0,1,1.94,1.57L223.69,172a2,2,0,0,1-1.94,2.39h-82.6A2,2,0,0,1,137.21,172.85Z"
     transform="translate(-56.11 -97.67)"
     id="path94"
     style="fill:#80b3ff" />
  <polygon
     class="g"
     points="110.46 25.74 93.12 25.74 92.73 23.88 110.07 23.88 110.46 25.74"
     id="polygon96"
     style="fill:#0000ff" />
  <polygon
     class="m"
     points="107.64 28.72 100.68 28.72 100.29 26.85 107.25 26.85 107.64 28.72"
     id="polygon98"
     style="fill:#80b3ff" />
  <polygon
     class="m"
     points="119.22 28.72 108.5 28.72 108.11 26.85 118.83 26.85 119.22 28.72"
     id="polygon100"
     style="fill:#80b3ff" />
  <polygon
     class="m"
     points="123.89 31.69 101.3 31.69 100.91 29.83 123.5 29.83 123.89 31.69"
     id="polygon102"
     style="fill:#80b3ff" />
  <polygon
     class="m"
     points="121.02 34.67 101.92 34.67 101.53 32.8 120.63 32.8 121.02 34.67"
     id="polygon104"
     style="fill:#80b3ff" />
  <polygon
     class="m"
     points="133.69 66.28 121.53 66.28 121.92 68.15 134.08 68.15 133.69 66.28"
     id="polygon106"
     style="fill:#80b3ff" />
  <polygon
     class="g"
     points="118.53 62.2 100.72 62.2 100.33 60.33 118.14 60.33 118.53 62.2"
     id="polygon108"
     style="fill:#0000ff" />
  <polygon
     class="m"
     points="125.69 69.26 109.13 69.26 109.52 71.12 126.08 71.12 125.69 69.26"
     id="polygon110"
     style="fill:#80b3ff" />
  <polygon
     class="m"
     points="120.67 66.28 108.51 66.28 108.9 68.15 121.06 68.15 120.67 66.28"
     id="polygon112"
     style="fill:#80b3ff" />
  <polygon
     class="m"
     points="132.21 63.31 107.89 63.31 108.28 65.17 132.59 65.17 132.21 63.31"
     id="polygon114"
     style="fill:#80b3ff" />
  <polygon
     class="g"
     points="109.85 11.87 90.23 11.87 89.84 10 109.46 10 109.85 11.87"
     id="polygon116"
     style="fill:#0000ff" />
  <polygon
     class="m"
     points="119.53 18.92 97.9 18.92 98.29 20.79 119.92 20.79 119.53 18.92"
     id="polygon118"
     style="fill:#80b3ff" />
  <polygon
     class="m"
     points="115.21 15.95 97.28 15.95 97.67 17.82 115.59 17.82 115.21 15.95"
     id="polygon120"
     style="fill:#80b3ff" />
  <polygon
     class="m"
     points="116.4 12.97 96.66 12.97 97.05 14.84 116.79 14.84 116.4 12.97"
     id="polygon122"
     style="fill:#80b3ff" />
  <polygon
     class="g"
     points="109.62 39.51 95.99 39.51 95.6 37.64 109.23 37.64 109.62 39.51"
     id="polygon124"
     style="fill:#0000ff" />
  <polygon
     class="m"
     points="131.04 46.57 104.4 46.57 104.79 48.43 131.43 48.43 131.04 46.57"
     id="polygon126"
     style="fill:#80b3ff" />
  <polygon
     class="m"
     points="114.82 43.59 103.78 43.59 104.17 45.46 115.21 45.46 114.82 43.59"
     id="polygon128"
     style="fill:#80b3ff" />
  <polygon
     class="m"
     points="126.8 43.59 115.76 43.59 116.15 45.46 127.19 45.46 126.8 43.59"
     id="polygon130"
     style="fill:#80b3ff" />
  <polygon
     class="m"
     points="127.47 40.62 103.16 40.62 103.55 42.48 127.86 42.48 127.47 40.62"
     id="polygon132"
     style="fill:#80b3ff" />
  <polygon
     class="m"
     points="127.43 55.49 106.26 55.49 106.65 57.36 127.82 57.36 127.43 55.49"
     id="polygon134"
     style="fill:#80b3ff" />
  <polygon
     class="m"
     points="111.8 52.52 105.64 52.52 106.03 54.38 112.18 54.38 111.8 52.52"
     id="polygon136"
     style="fill:#80b3ff" />
  <polygon
     class="m"
     points="121.43 52.52 112.64 52.52 113.03 54.38 121.82 54.38 121.43 52.52"
     id="polygon138"
     style="fill:#80b3ff" />
  <polygon
     class="m"
     points="129.34 49.54 105.02 49.54 105.41 51.41 129.72 51.41 129.34 49.54"
     id="polygon140"
     style="fill:#80b3ff" />
  <polygon
     class="m"
     points="148.49 49.04 139.78 49.04 139.39 47.18 148.1 47.18 148.49 49.04"
     id="polygon142"
     style="fill:#80b3ff" />
  <polygon
     class="m"
     points="162.99 49.04 149.57 49.04 149.18 47.18 162.6 47.18 162.99 49.04"
     id="polygon144"
     style="fill:#80b3ff" />
  <polygon
     class="m"
     points="168.69 52.02 140.4 52.02 140.01 50.15 168.3 50.15 168.69 52.02"
     id="polygon146"
     style="fill:#80b3ff" />
  <polygon
     class="m"
     points="164.93 54.99 141.02 54.99 140.63 53.13 164.54 53.13 164.93 54.99"
     id="polygon148"
     style="fill:#80b3ff" />
  <polygon
     class="m"
     points="175.64 37.21 148.55 37.21 148.94 39.07 176.03 39.07 175.64 37.21"
     id="polygon150"
     style="fill:#80b3ff" />
  <polygon
     class="m"
     points="170.37 34.23 147.93 34.23 148.32 36.1 170.76 36.1 170.37 34.23"
     id="polygon152"
     style="fill:#80b3ff" />
  <polygon
     class="g"
     points="166.32 31.26 141.6 31.26 141.99 33.12 166.71 33.12 166.32 31.26"
     id="polygon154"
     style="fill:#0000ff" />
  <polygon
     class="m"
     points="176.86 66.89 143.5 66.89 143.89 68.76 177.25 68.76 176.86 66.89"
     id="polygon156"
     style="fill:#80b3ff" />
  <polygon
     class="m"
     points="156.7 63.92 142.88 63.92 143.27 65.78 157.09 65.78 156.7 63.92"
     id="polygon158"
     style="fill:#80b3ff" />
  <polygon
     class="m"
     points="171.7 63.92 157.88 63.92 158.27 65.78 172.09 65.78 171.7 63.92"
     id="polygon160"
     style="fill:#80b3ff" />
  <polygon
     class="m"
     points="172.7 60.94 142.26 60.94 142.65 62.81 173.09 62.81 172.7 60.94"
     id="polygon162"
     style="fill:#80b3ff" />
  <polygon
     class="m"
     points="171.86 75.82 145.36 75.82 145.75 77.68 172.25 77.68 171.86 75.82"
     id="polygon164"
     style="fill:#80b3ff" />
  <polygon
     class="m"
     points="152.45 72.84 144.74 72.84 145.13 74.71 152.84 74.71 152.45 72.84"
     id="polygon166"
     style="fill:#80b3ff" />
  <polygon
     class="m"
     points="164.51 72.84 153.51 72.84 153.9 74.71 164.9 74.71 164.51 72.84"
     id="polygon168"
     style="fill:#80b3ff" />
  <polygon
     class="m"
     points="174.56 69.87 144.12 69.87 144.51 71.73 174.95 71.73 174.56 69.87"
     id="polygon170"
     style="fill:#80b3ff" />
  <polygon
     class="m"
     points="93.49 78.13 72.75 78.13 73.14 79.99 93.88 79.99 93.49 78.13"
     id="polygon172"
     style="fill:#80b3ff" />
  <polygon
     class="m"
     points="87.35 75.15 72.13 75.15 72.52 77.02 87.74 77.02 87.35 75.15"
     id="polygon174"
     style="fill:#80b3ff" />
  <polygon
     class="m"
     points="103.65 75.15 88.43 75.15 88.82 77.02 104.04 77.02 103.65 75.15"
     id="polygon176"
     style="fill:#80b3ff" />
  <polygon
     class="m"
     points="101.95 72.17 71.51 72.17 71.9 74.04 102.34 74.04 101.95 72.17"
     id="polygon178"
     style="fill:#80b3ff" />
  <polygon
     class="n"
     points="334.84 134 322 134 323.5 153.42 333.34 153.42 334.84 134"
     id="polygon180" />
  <polygon
     class="k"
     points="334.84 134 322 134 323.5 153.42 333.34 153.42 334.84 134"
     id="polygon182"
     style="fill:#2a7fff" />
  <polygon
     class="i"
     points="55.02 120.51 73.48 120.51 67.18 153.42 48.72 153.42 55.02 120.51"
     id="polygon184" />
  <polygon
     class="g"
     points="78.53 111.68 52.46 111.68 59.76 153.42 85.83 153.42 78.53 111.68"
     id="polygon186"
     style="fill:#0000ff" />
  <polygon
     class="n"
     points="50.92 111.68 52.46 111.68 59.76 153.42 58.22 153.42 50.92 111.68"
     id="polygon188" />
  <polygon
     class="o"
     points="50.92 111.68 52.46 111.68 59.76 153.42 58.22 153.42 50.92 111.68"
     id="polygon190"
     style="fill:#002255" />
  <polygon
     class="j"
     points="63.51 148.96 57.77 116.14 74.78 116.14 80.52 148.96 63.51 148.96"
     id="polygon192" />
  <polygon
     class="k"
     points="79.71 148.96 73.98 116.14 74.78 116.14 80.52 148.96 79.71 148.96"
     id="polygon194" />
  <path
     class="i"
     d="M263.77,156c.37.8.25,1.65-.28,1.89s-1.25-.21-1.62-1-.24-1.65.28-1.89S263.4,155.16,263.77,156Z"
     transform="translate(-56.11 -97.67)"
     id="path196" />
  <path
     class="p"
     d="M264.09,157.58s.32,5.46-.66,8.62c2,.67,4.16-1,4.16-1Z"
     transform="translate(-56.11 -97.67)"
     id="path198" />
  <path
     class="i"
     d="M263.87,149.39a.53.53,0,0,1-.3.12,4.12,4.12,0,0,0-3.29,1.79.52.52,0,1,1-.9-.52,5.14,5.14,0,0,1,4.13-2.31.52.52,0,0,1,.36.92Z"
     transform="translate(-56.11 -97.67)"
     id="path200" />
  <path
     class="q"
     d="M293.22,154.76c3.09,10.7,6.54,19,10.75,23.74,0,0,.08,8.41-14.25,12.41-15.76,4.4-9.72-5.72-9.72-5.72,8-4.45,7.24-11.17,1.22-13.73Z"
     transform="translate(-56.11 -97.67)"
     id="path202" />
  <path
     class="i"
     d="M307.31,176.45c-.28-3.91-.65-8.37-3.06-8.49-2.66-.12-18.06,6.76-21.35,11.61s3.14,9.6,3.14,9.6Z"
     transform="translate(-56.11 -97.67)"
     id="path204" />
  <path
     class="q"
     d="M275.79,237l-13.3-.44.24,11.14s11.6-1.2,12.11-4.25Z"
     transform="translate(-56.11 -97.67)"
     id="path206" />
  <polygon
     class="q"
     points="199.35 144.37 197.95 150.06 206.61 150.04 206.38 138.9 199.35 144.37"
     id="polygon208" />
  <path
     class="g"
     d="M329.17,190.71l-.28,2.86c-.09.92-.21,1.82-.33,2.73-.23,1.81-.52,3.62-.83,5.42-.6,3.61-1.38,7.2-2.28,10.81a107.83,107.83,0,0,1-3.32,10.87c-.69,1.83-1.41,3.66-2.27,5.52a45.73,45.73,0,0,1-3,5.65c-.27.47-.61,1-.94,1.44s-.65,1-1,1.46-.72,1-1.18,1.47l-.65.74a10.06,10.06,0,0,1-.74.78,22.81,22.81,0,0,1-6.93,4.65,41,41,0,0,1-12.43,3.15c-1.95.23-3.88.32-5.77.37s-3.78,0-5.64-.1-3.7-.26-5.53-.48-3.61-.51-5.55-.9l.32-10.45a160.33,160.33,0,0,0,18.9-4.5,41.44,41.44,0,0,0,4.06-1.56,18.63,18.63,0,0,0,3.22-1.75,4.48,4.48,0,0,0,1.46-1.42l.29-.46a6.53,6.53,0,0,0,.37-.61,7.56,7.56,0,0,0,.39-.71c.13-.26.27-.5.4-.79a52.59,52.59,0,0,0,2.89-7.94c.82-2.94,1.59-6,2.21-9.17s1.22-6.37,1.77-9.6l.76-4.86.69-4.73Z"
     transform="translate(-56.11 -97.67)"
     id="path210"
     style="fill:#0000ff" />
  <path
     class="r"
     d="m 273.06,93.04 -0.28,2.86 c -0.09,0.92 -0.21,1.82 -0.33,2.73 -0.23,1.81 -0.52,3.62 -0.83,5.42 -0.6,3.61 -1.38,7.2 -2.28,10.81 a 107.83,107.83 0 0 1 -3.32,10.87 c -0.69,1.83 -1.41,3.66 -2.27,5.52 a 45.73,45.73 0 0 1 -3,5.65 c -0.27,0.47 -0.61,1 -0.94,1.44 -0.33,0.44 -0.65,1 -1,1.46 -0.35,0.46 -0.72,1 -1.18,1.47 l -0.65,0.74 a 10.06,10.06 0 0 1 -0.74,0.78 22.81,22.81 0 0 1 -6.93,4.65 41,41 0 0 1 -12.43,3.15 c -1.95,0.23 -3.88,0.32 -5.77,0.37 -1.89,0.05 -3.78,0 -5.64,-0.1 -1.86,-0.1 -3.7,-0.26 -5.53,-0.48 -1.83,-0.22 -3.61,-0.51 -5.55,-0.9 l 0.32,-10.45 a 160.33,160.33 0 0 0 18.9,-4.5 41.44,41.44 0 0 0 4.06,-1.56 18.63,18.63 0 0 0 3.22,-1.75 4.48,4.48 0 0 0 1.46,-1.42 l 0.29,-0.46 a 6.53,6.53 0 0 0 0.37,-0.61 7.56,7.56 0 0 0 0.39,-0.71 c 0.13,-0.26 0.27,-0.5 0.4,-0.79 a 52.59,52.59 0 0 0 2.89,-7.94 c 0.82,-2.94 1.59,-6 2.21,-9.17 0.62,-3.17 1.22,-6.37 1.77,-9.6 l 0.76,-4.86 0.69,-4.73 z"
     id="path212"
     style="opacity:0.2;fill:#000080"
     inkscape:connector-curvature="0" />
  <path
     class="g"
     d="M270.12,204a326.55,326.55,0,0,1,8.33,65.14H337c.32-7.23-.9-48-6.79-77.45a20.4,20.4,0,0,0-24.4-16l-.28.07c-7.31,1.66-17.8,4.34-24,6.69l-.25.1A18.33,18.33,0,0,0,270.12,204Z"
     transform="translate(-56.11 -97.67)"
     id="path214"
     style="fill:#000080" />
  <path
     class="s"
     d="M273.93,222.7c.46,2.81.93,5.79,1.36,8.91,4.79-5,6.31-20.32,6.31-20.32Z"
     transform="translate(-56.11 -97.67)"
     id="path216" />
  <path
     class="q"
     d="M225.29,237.73,212,236.49l-.44,11.13A12.48,12.48,0,0,0,224,244.11Z"
     transform="translate(-56.11 -97.67)"
     id="path218" />
  <polygon
     class="q"
     points="149.57 142.1 145.31 149.75 155.49 149.95 155.93 138.82 149.57 142.1"
     id="polygon220" />
  <path
     class="g"
     d="M292.09,198.87c-.92,1.75-1.74,3.3-2.66,4.9s-1.8,3.16-2.75,4.71c-1.88,3.12-3.83,6.18-5.89,9.21a153.64,153.64,0,0,1-13.71,17.64,75.7,75.7,0,0,1-8.69,8.27c-.39.33-.85.65-1.28,1s-.81.63-1.45,1-1.18.74-1.76,1.06-1.18.61-1.77.87a31.42,31.42,0,0,1-6.88,2.09,43.44,43.44,0,0,1-12.52.28,52,52,0,0,1-5.8-1q-1.43-.33-2.82-.75c-1-.28-1.81-.59-2.88-1l1.65-10.32c6.28-.85,13.07-1.94,17.75-4.06a12.83,12.83,0,0,0,2.91-1.67,6.81,6.81,0,0,0,1-.84c.07-.09.38-.36.61-.58s.5-.43.75-.69a71.37,71.37,0,0,0,6-6.75,195.49,195.49,0,0,0,11.27-16.16c1.8-2.83,3.55-5.71,5.3-8.6l2.58-4.34,2.49-4.27Z"
     transform="translate(-56.11 -97.67)"
     id="path222"
     style="fill:#000080" />
  <polygon
     class="q"
     points="219.91 309.94 208.97 309.94 203.46 284.58 214.41 284.58 219.91 309.94"
     id="polygon224" />
  <path
     class="i"
     d="M264.47,405.26h12.3a1,1,0,0,1,.93.74l2.16,9.74a1.6,1.6,0,0,1-1.6,1.94c-4.29-.07-6.38-.32-11.79-.32-3.33,0-7.6.34-12.19.34s-5.2-4.54-3.32-4.95c8.44-1.85,9-4.39,11.73-6.82A2.64,2.64,0,0,1,264.47,405.26Z"
     transform="translate(-56.11 -97.67)"
     id="path226" />
  <g
     class="t"
     id="g230">
    <polygon
       points="214.41 284.59 203.46 284.59 206.51 298.63 217.26 297.66 214.41 284.59"
       id="polygon228" />
  </g>
  <path
     class="q"
     d="M289.71,141.9c4,10.12,6.78,15.85,4.14,23.2-4,11.05-18.19,12.17-25.09,3.43-6.2-7.87-11.62-23.1-3.79-31.47A14.81,14.81,0,0,1,289.71,141.9Z"
     transform="translate(-56.11 -97.67)"
     id="path232" />
  <path
     class="i"
     d="M270.49,157.06c-1.64,2.2-2.9,3.87-2.9,3.87s-3.37-8.37-2.08-12.21c-1.64-3.25-4.95,1.54-6.2-4.79s4.16-13.13,6.2-14.54a7.41,7.41,0,0,1,.28,2.27,28,28,0,0,1,19.6-6.19,6.77,6.77,0,0,0-1.1,2.94s11.87,2,14.57,8.72a12.83,12.83,0,0,0-3-1,14.49,14.49,0,0,1,2.4,10.72,110.21,110.21,0,0,0-1.34,16.53c.11,2.84-7.68,8.27-12.43,2.47S270.49,157.06,270.49,157.06Z"
     transform="translate(-56.11 -97.67)"
     id="path234" />
  <path
     class="q"
     d="M275.44,154.88a11.07,11.07,0,0,1-.5,7.1c-1.27,3-3.88,2.28-5.17-.34-1.17-2.35-1.92-6.71.15-8.8S274.66,152.05,275.44,154.88Z"
     transform="translate(-56.11 -97.67)"
     id="path236" />
  <path
     class="n"
     d="M296,269.1s-50.84,18.44-52.33,42.83c-2.76,44.93,15.61,80.5,15.61,80.5l16.84-1.8s-3-14.46-5.23-55.16c-2.81-51.15,84,1.2,66.12-66.37Z"
     transform="translate(-56.11 -97.67)"
     id="path238" />
  <path
     class="k"
     d="M296,269.1s-50.84,18.44-52.33,42.83c-2.76,44.93,15.61,80.5,15.61,80.5l16.84-1.8s-3-14.46-5.23-55.16c-2.81-51.15,84,1.2,66.12-66.37Z"
     transform="translate(-56.11 -97.67)"
     id="path240"
     style="fill:#80b3ff" />
  <path
     class="g"
     d="M254.62,386.23c-.08,0,2.68,7.48,2.68,7.48l21-2.06-1.05-6.8Z"
     transform="translate(-56.11 -97.67)"
     id="path242"
     style="fill:#0000ff" />
  <polygon
     class="q"
     points="172.62 311.18 161.67 311.18 158.47 285.83 169.42 285.83 172.62 311.18"
     id="polygon244" />
  <path
     class="i"
     d="M217.7,405.25h12a.94.94,0,0,1,.93.74l2.18,9.73a1.59,1.59,0,0,1-1.57,2c-4.31-.07-10.55-.31-16-.3-6.34,0-7.55.35-15,.36-4.5,0-5.75-4.53-3.87-5,8.56-1.88,11.3-2.09,18.69-6.66A5,5,0,0,1,217.7,405.25Z"
     transform="translate(-56.11 -97.67)"
     id="path246" />
  <polygon
     class="s"
     points="158.48 285.83 160.22 299.64 171.07 298.9 169.43 285.83 158.48 285.83"
     id="polygon248" />
  <path
     class="n"
     d="M278.45,269.1s-83.3,7.39-82.4,49.23c.93,43.52,17.19,72.87,17.19,72.87H229.5s-3.08-22.58-2.53-65.42c.16-12.83,26.1-17.07,51.42-18.57,21.88-1.3,42.36-13.77,50.86-34L331,269.1Z"
     transform="translate(-56.11 -97.67)"
     id="path250" />
  <path
     class="k"
     d="M278.45,269.1s-83.3,7.39-82.4,49.23c.93,43.52,17.19,72.87,17.19,72.87H229.5s-3.08-22.58-2.53-65.42c.16-12.83,26.1-17.07,51.42-18.57,21.88-1.3,42.36-13.77,50.86-34L331,269.1Z"
     transform="translate(-56.11 -97.67)"
     id="path252"
     style="fill:#80b3ff" />
  <path
     class="g"
     d="M209.43,386.83c-.07,0,2.79,7.52,2.79,7.52l19.64-1.41-1.15-6.8Z"
     transform="translate(-56.11 -97.67)"
     id="path254"
     style="fill:#0000ff" />
  <path
     class="i"
     d="M300.32,222.08l-10.57,40.73a127.1,127.1,0,0,0-4.06,31.95v18.93c0,4.78,3.52,8.66,7.87,8.66h54.18c4.35,0,7.87-3.88,7.87-8.66V294.76a127.11,127.11,0,0,1,4.07-31.95l9.33-36c1.44-5.53-2.34-11-7.57-11H307.88A8,8,0,0,0,300.32,222.08Z"
     transform="translate(-56.11 -97.67)"
     id="path256" />
  <path
     class="i"
     d="M232.93,302.63l1.77,10.1c.94,5.31,5.61,9.62,10.44,9.62h60.23c4.83,0,8-4.31,7.06-9.62l-1.77-10.1c-1.07-6.05-6.38-10.95-11.88-10.95H241C235.46,291.68,231.87,296.58,232.93,302.63Z"
     transform="translate(-56.11 -97.67)"
     id="path258" />
  <polygon
     class="g"
     points="255.06 234.82 223.51 234.82 220.43 224.68 258.14 224.68 255.06 234.82"
     id="polygon260"
     style="fill:#0000ff" />
  <rect
     class="g"
     x="233.65"
     y="234.82"
     width="11.27"
     height="75.41"
     id="rect262"
     style="fill:#0000ff" />
  <polygon
     class="k"
     points="244.92 310.24 233.65 310.24 233.65 236.63 244.92 237.78 244.92 310.24"
     id="polygon264"
     style="fill:#5599ff" />
  <polygon
     class="u"
     points="242.17 310.24 239.48 310.24 239.48 237.23 242.17 237.5 242.17 310.24"
     id="polygon266" />
  <path
     class="g"
     d="M321.31,419.56H269.47a1.44,1.44,0,0,1-.84-2.6l8.22-6a23.08,23.08,0,0,1,13.62-4.46h9.85a23.07,23.07,0,0,1,13.61,4.46l8.23,6A1.44,1.44,0,0,1,321.31,419.56Z"
     transform="translate(-56.11 -97.67)"
     id="path268"
     style="fill:#0000ff" />
</svg>
